<svg width="26" height="26" viewBox="0 0 26 26" fill="none" xmlns="http://www.w3.org/2000/svg">
<path d="M13 0C20.1799 0 26 5.8201 26 13C26 20.1799 20.1799 26 13 26C5.8201 26 0 20.1799 0 13C0 5.8201 5.8201 0 13 0ZM13 3.9C11.2249 3.89986 9.48851 4.41888 8.00467 5.39316C6.52084 6.36743 5.35434 7.75442 4.64885 9.3833C3.94335 11.0122 3.72966 12.8118 4.03409 14.5606C4.33852 16.3094 5.14778 17.931 6.3622 19.2257L6.565 19.4337L8.4032 17.5968C7.39052 16.5851 6.74014 15.2673 6.55302 13.8481C6.3659 12.4289 6.65251 10.9877 7.36835 9.74802C8.08418 8.50838 9.18922 7.53971 10.5119 6.99237C11.8346 6.44503 13.301 6.34964 14.6835 6.721L16.7154 4.6904C15.5464 4.16813 14.2803 3.89878 13 3.9ZM21.3096 9.2859L19.2803 11.3165C19.4233 11.8534 19.5 12.4176 19.5 13C19.5 14.794 18.772 16.419 17.5968 17.5968L19.435 19.435C20.281 18.5907 20.952 17.5876 21.4093 16.4833C21.8666 15.379 22.1014 14.1953 22.1 13C22.102 11.72 21.8326 10.4541 21.3096 9.2859ZM18.5146 5.6459L13.6721 10.4871C13.2868 10.3845 12.8832 10.3719 12.4923 10.45C12.1013 10.5282 11.7336 10.6952 11.4174 10.938C11.1012 11.1808 10.845 11.493 10.6686 11.8505C10.4922 12.2081 10.4003 12.6013 10.4 13C10.4007 13.3696 10.4802 13.7349 10.6332 14.0714C10.7862 14.4079 11.0092 14.7079 11.2873 14.9514C11.5654 15.1949 11.8923 15.3763 12.246 15.4835C12.5998 15.5907 12.9724 15.6212 13.3389 15.573C13.7054 15.5249 14.0574 15.3991 14.3714 15.2041C14.6855 15.0091 14.9543 14.7494 15.1601 14.4423C15.3658 14.1352 15.5037 13.7878 15.5645 13.4232C15.6254 13.0586 15.6078 12.6852 15.5129 12.3279L20.3541 7.4841L18.5159 5.6459H18.5146Z" fill="white"/>
</svg>
