<svg width="30" height="30" viewBox="0 0 30 30" fill="none" xmlns="http://www.w3.org/2000/svg">
<path d="M26.25 27.5H3.75C3.2375 27.5 2.8125 27.075 2.8125 26.5625C2.8125 26.05 3.2375 25.625 3.75 25.625H26.25C26.7625 25.625 27.1875 26.05 27.1875 26.5625C27.1875 27.075 26.7625 27.5 26.25 27.5Z" fill="white"/>
<path d="M23.775 4.34995C21.35 1.92495 18.975 1.86245 16.4875 4.34995L14.975 5.86245C14.85 5.98745 14.8 6.18745 14.85 6.36245C15.8 9.67495 18.45 12.325 21.7625 13.275C21.8125 13.2875 21.8625 13.3 21.9125 13.3C22.05 13.3 22.175 13.25 22.275 13.15L23.775 11.6375C25.0125 10.4125 25.6125 9.22495 25.6125 8.02495C25.625 6.78745 25.025 5.58745 23.775 4.34995Z" fill="white"/>
<path d="M19.5124 14.4125C19.1499 14.2375 18.7999 14.0625 18.4624 13.8625C18.1874 13.7 17.9249 13.525 17.6624 13.3375C17.4499 13.2 17.1999 13 16.9624 12.8C16.9374 12.7875 16.8499 12.7125 16.7499 12.6125C16.3374 12.2625 15.8749 11.8125 15.4624 11.3125C15.4249 11.2875 15.3624 11.2 15.2749 11.0875C15.1499 10.9375 14.9374 10.6875 14.7499 10.4C14.5999 10.2125 14.4249 9.9375 14.2624 9.6625C14.0624 9.325 13.8874 8.9875 13.7124 8.6375C13.6576 8.52002 13.6064 8.40378 13.5582 8.28914C13.4169 7.95314 12.9811 7.85627 12.7234 8.11403L5.42491 15.4125C5.26241 15.575 5.11241 15.8875 5.07491 16.1L4.39991 20.8875C4.27491 21.7375 4.51241 22.5375 5.03741 23.075C5.48741 23.5125 6.11241 23.75 6.78741 23.75C6.93741 23.75 7.08741 23.7375 7.23741 23.7125L12.0374 23.0375C12.2624 23 12.5749 22.85 12.7249 22.6875L20.0162 15.3962C20.2758 15.1366 20.1774 14.6924 19.8386 14.5513C19.7323 14.507 19.624 14.4609 19.5124 14.4125Z" fill="white"/>
</svg>
