<svg width="30" height="30" viewBox="0 0 30 30" fill="none" xmlns="http://www.w3.org/2000/svg">
<path d="M3.225 23.7625L3.2 23.7875C2.8625 23.05 2.65 22.2125 2.5625 21.2875C2.65 22.2 2.8875 23.025 3.225 23.7625Z" fill="white"/>
<path d="M11.2499 12.975C12.8929 12.975 14.2249 11.6431 14.2249 10C14.2249 8.35698 12.8929 7.02502 11.2499 7.02502C9.60685 7.02502 8.2749 8.35698 8.2749 10C8.2749 11.6431 9.60685 12.975 11.2499 12.975Z" fill="white"/>
<path d="M20.2375 2.5H9.7625C5.2125 2.5 2.5 5.2125 2.5 9.7625V20.2375C2.5 21.6 2.7375 22.7875 3.2 23.7875C4.275 26.1625 6.575 27.5 9.7625 27.5H20.2375C24.7875 27.5 27.5 24.7875 27.5 20.2375V17.375V9.7625C27.5 5.2125 24.7875 2.5 20.2375 2.5ZM25.4625 15.625C24.4875 14.7875 22.9125 14.7875 21.9375 15.625L16.7375 20.0875C15.7625 20.925 14.1875 20.925 13.2125 20.0875L12.7875 19.7375C11.9 18.9625 10.4875 18.8875 9.4875 19.5625L4.8125 22.7C4.5375 22 4.375 21.1875 4.375 20.2375V9.7625C4.375 6.2375 6.2375 4.375 9.7625 4.375H20.2375C23.7625 4.375 25.625 6.2375 25.625 9.7625V15.7625L25.4625 15.625Z" fill="white"/>
</svg>
