<svg width="30" height="50" viewBox="0 0 30 30" fill="none" xmlns="http://www.w3.org/2000/svg">
<path d="M29.3667 12.0832C27.6167 4.38317 20.9 0.916504 15 0.916504C15 0.916504 15 0.916504 14.9834 0.916504C9.10004 0.916504 2.3667 4.3665 0.616704 12.0665C-1.3333 20.6665 3.93337 27.9498 8.70004 32.5332C10.4667 34.2332 12.7334 35.0832 15 35.0832C17.2667 35.0832 19.5334 34.2332 21.2834 32.5332C26.05 27.9498 31.3167 20.6832 29.3667 12.0832ZM15 20.4332C12.1 20.4332 9.75004 18.0832 9.75004 15.1832C9.75004 12.2832 12.1 9.93317 15 9.93317C17.9 9.93317 20.25 12.2832 20.25 15.1832C20.25 18.0832 17.9 20.4332 15 20.4332Z" fill="black"/>
</svg>
