<svg width="34" height="30" viewBox="0 0 34 30" fill="none" xmlns="http://www.w3.org/2000/svg">
<path d="M25.3335 0.833496H8.66683C3.66683 0.833496 0.333496 3.3335 0.333496 9.16683V20.8335C0.333496 26.6668 3.66683 29.1668 8.66683 29.1668H25.3335C30.3335 29.1668 33.6668 26.6668 33.6668 20.8335V9.16683C33.6668 3.3335 30.3335 0.833496 25.3335 0.833496ZM26.1168 10.9835L20.9002 15.1502C19.8002 16.0335 18.4002 16.4668 17.0002 16.4668C15.6002 16.4668 14.1835 16.0335 13.1002 15.1502L7.8835 10.9835C7.35016 10.5502 7.26683 9.75016 7.6835 9.21683C8.11683 8.6835 8.90016 8.5835 9.4335 9.01683L14.6502 13.1835C15.9168 14.2002 18.0668 14.2002 19.3335 13.1835L24.5502 9.01683C25.0835 8.5835 25.8835 8.66683 26.3002 9.21683C26.7335 9.75016 26.6502 10.5502 26.1168 10.9835Z" fill="black"/>
</svg>
