<svg width="150" height="150" viewBox="0 0 150 150" fill="none" xmlns="http://www.w3.org/2000/svg">
<path d="M75 12.5C58.625 12.5 45.3125 25.8125 45.3125 42.1875C45.3125 58.25 57.875 71.25 74.25 71.8125C74.75 71.75 75.25 71.75 75.625 71.8125C75.75 71.8125 75.8125 71.8125 75.9375 71.8125C76 71.8125 76 71.8125 76.0625 71.8125C92.0625 71.25 104.625 58.25 104.688 42.1875C104.688 25.8125 91.375 12.5 75 12.5Z" fill="white"/>
<path d="M106.75 88.4375C89.3125 76.8125 60.875 76.8125 43.3125 88.4375C35.375 93.75 31 100.937 31 108.625C31 116.312 35.375 123.438 43.25 128.688C52 134.562 63.5 137.5 75 137.5C86.5 137.5 98 134.562 106.75 128.688C114.625 123.375 119 116.25 119 108.5C118.938 100.813 114.625 93.6875 106.75 88.4375Z" fill="white"/>
</svg>