<svg width="30" height="30" viewBox="0 0 30 30" fill="none" xmlns="http://www.w3.org/2000/svg">
<path d="M23.6751 6.77505L17.2126 3.03755C15.9751 2.32505 14.0376 2.32505 12.8001 3.03755L6.2751 6.80005C3.6876 8.55005 3.5376 8.81255 3.5376 11.6V18.3875C3.5376 21.175 3.6876 21.45 6.3251 23.225L12.7876 26.9625C13.4126 27.325 14.2126 27.5 15.0001 27.5C15.7876 27.5 16.5876 27.325 17.2001 26.9625L23.7251 23.2C26.3126 21.45 26.4626 21.1875 26.4626 18.4V11.6C26.4626 8.81255 26.3126 8.55005 23.6751 6.77505ZM15.0001 19.0625C12.7626 19.0625 10.9376 17.2375 10.9376 15C10.9376 12.7625 12.7626 10.9375 15.0001 10.9375C17.2376 10.9375 19.0626 12.7625 19.0626 15C19.0626 17.2375 17.2376 19.0625 15.0001 19.0625Z" fill="white"/>
</svg>
