<svg width="30" height="30" viewBox="0 0 30 30" fill="none" xmlns="http://www.w3.org/2000/svg">
<path d="M21.25 4.375H8.75C5 4.375 2.5 6.25 2.5 10.625V19.375C2.5 23.75 5 25.625 8.75 25.625H21.25C25 25.625 27.5 23.75 27.5 19.375V10.625C27.5 6.25 25 4.375 21.25 4.375ZM21.8375 11.9875L17.925 15.1125C17.1 15.775 16.05 16.1 15 16.1C13.95 16.1 12.8875 15.775 12.075 15.1125L8.1625 11.9875C7.7625 11.6625 7.7 11.0625 8.0125 10.6625C8.3375 10.2625 8.925 10.1875 9.325 10.5125L13.2375 13.6375C14.1875 14.4 15.8 14.4 16.75 13.6375L20.6625 10.5125C21.0625 10.1875 21.6625 10.25 21.975 10.6625C22.3 11.0625 22.2375 11.6625 21.8375 11.9875Z" fill="white"/>
</svg>
