<svg width="150" height="150" viewBox="0 0 150 150" fill="none" xmlns="http://www.w3.org/2000/svg">
<path d="M75 12.5C40.5 12.5 12.5 40.5 12.5 75C12.5 109.5 40.5 137.5 75 137.5C109.5 137.5 137.5 109.5 137.5 75C137.5 40.5 109.5 12.5 75 12.5ZM107.812 77.0625C107.812 79.625 105.688 81.75 103.125 81.75C100.562 81.75 98.4375 79.625 98.4375 77.0625V58.1875L50.1875 106.438C49.25 107.375 48.0625 107.812 46.875 107.812C45.6875 107.812 44.5 107.375 43.5625 106.438C41.75 104.625 41.75 101.625 43.5625 99.8125L91.8125 51.5625H72.9375C70.375 51.5625 68.25 49.4375 68.25 46.875C68.25 44.3125 70.375 42.1875 72.9375 42.1875H103.125C105.688 42.1875 107.812 44.3125 107.812 46.875V77.0625Z" fill="white"/>
</svg>
